<?xml version="1.0" encoding="UTF-8"?>
<!DOCTYPE svg PUBLIC "-//W3C//DTD SVG 1.1//EN" "http://www.w3.org/Graphics/SVG/1.1/DTD/svg11.dtd">
<svg width="160mm" height="90mm" viewBox="0 0 16000 9000" version="1.1" xmlns="http://www.w3.org/2000/svg" xmlns:xlink="http://www.w3.org/1999/xlink" stroke-width="28.222" stroke-linejoin="round" xml:space="preserve">
 <path fill="rgb(255,255,255)" stroke="none" d="M 8000,8999 L 0,8999 0,0 15999,0 15999,8999 8000,8999 Z"/>
 <path fill="none" stroke="rgb(179,179,179)" stroke-linejoin="round" d="M 6711,8172 L 2053,8172 2053,379 11369,379 11369,8172 6711,8172 Z"/>
 <path fill="none" stroke="rgb(179,179,179)" stroke-linejoin="round" d="M 11369,8171 L 2053,8171"/>
 <path fill="none" stroke="rgb(179,179,179)" stroke-linejoin="round" d="M 11369,6612 L 2053,6612"/>
 <path fill="none" stroke="rgb(179,179,179)" stroke-linejoin="round" d="M 11369,5053 L 2053,5053"/>
 <path fill="none" stroke="rgb(179,179,179)" stroke-linejoin="round" d="M 11369,3495 L 2053,3495"/>
 <path fill="none" stroke="rgb(179,179,179)" stroke-linejoin="round" d="M 11369,1936 L 2053,1936"/>
 <path fill="none" stroke="rgb(179,179,179)" stroke-linejoin="round" d="M 11369,377 L 2053,377"/>
 <path fill="none" stroke="rgb(179,179,179)" stroke-linejoin="round" d="M 2053,8321 L 2053,8171"/>
 <path fill="none" stroke="rgb(179,179,179)" stroke-linejoin="round" d="M 2053,8321 L 2053,8171"/>
 <path fill="none" stroke="rgb(179,179,179)" stroke-linejoin="round" d="M 3605,8321 L 3605,8171"/>
 <path fill="none" stroke="rgb(179,179,179)" stroke-linejoin="round" d="M 3605,8321 L 3605,8171"/>
 <path fill="none" stroke="rgb(179,179,179)" stroke-linejoin="round" d="M 5158,8321 L 5158,8171"/>
 <path fill="none" stroke="rgb(179,179,179)" stroke-linejoin="round" d="M 5158,8321 L 5158,8171"/>
 <path fill="none" stroke="rgb(179,179,179)" stroke-linejoin="round" d="M 6711,8321 L 6711,8171"/>
 <path fill="none" stroke="rgb(179,179,179)" stroke-linejoin="round" d="M 6711,8321 L 6711,8171"/>
 <path fill="none" stroke="rgb(179,179,179)" stroke-linejoin="round" d="M 8263,8321 L 8263,8171"/>
 <path fill="none" stroke="rgb(179,179,179)" stroke-linejoin="round" d="M 8263,8321 L 8263,8171"/>
 <path fill="none" stroke="rgb(179,179,179)" stroke-linejoin="round" d="M 9816,8321 L 9816,8171"/>
 <path fill="none" stroke="rgb(179,179,179)" stroke-linejoin="round" d="M 9816,8321 L 9816,8171"/>
 <path fill="none" stroke="rgb(179,179,179)" stroke-linejoin="round" d="M 11369,8321 L 11369,8171"/>
 <path fill="none" stroke="rgb(179,179,179)" stroke-linejoin="round" d="M 11369,8321 L 11369,8171"/>
 <path fill="none" stroke="rgb(179,179,179)" stroke-linejoin="round" d="M 2053,8171 L 11369,8171"/>
 <path fill="none" stroke="rgb(179,179,179)" stroke-linejoin="round" d="M 1903,8171 L 2053,8171"/>
 <path fill="none" stroke="rgb(179,179,179)" stroke-linejoin="round" d="M 1903,8171 L 2053,8171"/>
 <path fill="none" stroke="rgb(179,179,179)" stroke-linejoin="round" d="M 1903,6612 L 2053,6612"/>
 <path fill="none" stroke="rgb(179,179,179)" stroke-linejoin="round" d="M 1903,6612 L 2053,6612"/>
 <path fill="none" stroke="rgb(179,179,179)" stroke-linejoin="round" d="M 1903,5053 L 2053,5053"/>
 <path fill="none" stroke="rgb(179,179,179)" stroke-linejoin="round" d="M 1903,5053 L 2053,5053"/>
 <path fill="none" stroke="rgb(179,179,179)" stroke-linejoin="round" d="M 1903,3495 L 2053,3495"/>
 <path fill="none" stroke="rgb(179,179,179)" stroke-linejoin="round" d="M 1903,3495 L 2053,3495"/>
 <path fill="none" stroke="rgb(179,179,179)" stroke-linejoin="round" d="M 1903,1936 L 2053,1936"/>
 <path fill="none" stroke="rgb(179,179,179)" stroke-linejoin="round" d="M 1903,1936 L 2053,1936"/>
 <path fill="none" stroke="rgb(179,179,179)" stroke-linejoin="round" d="M 1903,377 L 2053,377"/>
 <path fill="none" stroke="rgb(179,179,179)" stroke-linejoin="round" d="M 1903,377 L 2053,377"/>
 <path fill="none" stroke="rgb(179,179,179)" stroke-linejoin="round" d="M 2053,8171 L 2053,377"/>
 <path fill="none" stroke="rgb(255,66,14)" stroke-width="80" stroke-linejoin="round" d="M 2053,8170 L 2441,7871 2829,7572 3217,7273 3605,6974 3994,6674 4382,6375 4770,6076 5158,5777 5546,5477 5935,5178 6323,4879 6711,4580 7099,4281 7487,3982 7876,3683 8263,3384 8651,3084 9039,2785 9427,2486 9816,2187"/>
 <path fill="none" stroke="rgb(0,69,134)" stroke-width="80" stroke-linejoin="round" d="M 2053,8170 L 2063,8169 2072,8169 2083,8167 2090,8161 2092,8158 2097,8151 2101,8147 2109,8142 2111,8141 2121,8137 2128,8133 2131,8131 2140,8126 2144,8124 2150,8120 2159,8114 2160,8114 2170,8109 2180,8106 2184,8105 2189,8103 2189,8095 2200,8086 2212,8079 2217,8076 2223,8073 2229,8070 2236,8067 2243,8064 2250,8060 2258,8057 2274,8049 2283,8045 2292,8041 2300,8037 2309,8032 2318,8028 2327,8024 2336,8019 2345,8015 2354,8011 2372,8002 2380,7998 2388,7993 2397,7989 2405,7984 2413,7980 2428,7971 2436,7967 2444,7962 2451,7958 2459,7953 2466,7948 2474,7943 2481,7939 2489,7934 2496,7929 2503,7924 2511,7918 2518,7913 2526,7908 2533,7902 2541,7897 2549,7891 2556,7885 2564,7879 2572,7874 2580,7868 2595,7856 2603,7850 2611,7845 2619,7839 2626,7833 2634,7828 2642,7823 2650,7817 2658,7812 2666,7807 2674,7802 2681,7798 2689,7793 2697,7789 2705,7784 2721,7776 2728,7772 2736,7768 2744,7764 2759,7756 2767,7752 2775,7748 2783,7744 2798,7736 2806,7731 2814,7727 2821,7722 2829,7718 2837,7713 2844,7707 2852,7702 2860,7697 2867,7691 2875,7685 2883,7679 2890,7674 2898,7668 2906,7661 2914,7655 2921,7649 2929,7643 2945,7631 2953,7624 2960,7618 2968,7612 2976,7606 2984,7600 2992,7594 3000,7588 3008,7582 3016,7577 3032,7566 3040,7560 3048,7555 3056,7549 3064,7544 3072,7539 3080,7534 3087,7529 3095,7524 3103,7519 3110,7514 3118,7509 3125,7504 3132,7500 3139,7495 3147,7491 3153,7486 3160,7482 3167,7477 3174,7473 3181,7468 3188,7464 3195,7459 3202,7455 3217,7445 3224,7440 3232,7435 3240,7430 3257,7418 3266,7412 3275,7406 3285,7399 3295,7392 3305,7385 3316,7378 3327,7370 3338,7363 3349,7355 3361,7347 3371,7340 3382,7332 3392,7325 3402,7318 3411,7312 3420,7306 3427,7300 3434,7295 3445,7288 3440,7288 3435,7291 3430,7294 3421,7299 3419,7298 3425,7293 3433,7287 3444,7279 3459,7268 3479,7254 3503,7237 3532,7217 3566,7193 3605,7165 3651,7134 3702,7098 3759,7059 3820,7016 3886,6970 3957,6921 4031,6870 4108,6816 4188,6759 4271,6701 4356,6640 4443,6578 4531,6515 4621,6450 4711,6385 4801,6319 4892,6252 4981,6185 5070,6118 5158,6052 5244,5985 5329,5920 5412,5854 5494,5789 5575,5725 5655,5661 5733,5598 5811,5535 5888,5473 5964,5411 6040,5351 6115,5290 6190,5231 6264,5172 6339,5114 6413,5056 6487,5000 6561,4944 6636,4889 6711,4834 6786,4781 6862,4728 6938,4676 7015,4624 7091,4572 7169,4521 7246,4471 7323,4419 7401,4367 7479,4315 7557,4262 7636,4209 7714,4154 7793,4099 7871,4043 7950,3985 8027,3926 8106,3866 8184,3804 8263,3740 8341,3674 8419,3606 8497,3537 8575,3466 8653,3394 8731,3320 8809,3244 8887,3168 8964,3090 9042,3011 9119,2932 9197,2851 9274,2770 9352,2688 9429,2605 9506,2522 9584,2439 9661,2355 9738,2271 9816,2187"/>
 <text class="TextShape"><tspan class="TextParagraph" font-family="Liberation Sans, sans-serif" font-size="353px" font-weight="400"><tspan class="TextPosition" x="1960" y="8739"><tspan fill="rgb(0,0,0)" stroke="none">0</tspan></tspan></tspan></text>
 <text class="TextShape"><tspan class="TextParagraph" font-family="Liberation Sans, sans-serif" font-size="353px" font-weight="400"><tspan class="TextPosition" x="2864" y="8739"><tspan fill="rgb(0,0,0)" stroke="none">10000000</tspan></tspan></tspan></text>
 <text class="TextShape"><tspan class="TextParagraph" font-family="Liberation Sans, sans-serif" font-size="353px" font-weight="400"><tspan class="TextPosition" x="4417" y="8739"><tspan fill="rgb(0,0,0)" stroke="none">20000000</tspan></tspan></tspan></text>
 <text class="TextShape"><tspan class="TextParagraph" font-family="Liberation Sans, sans-serif" font-size="353px" font-weight="400"><tspan class="TextPosition" x="5970" y="8739"><tspan fill="rgb(0,0,0)" stroke="none">30000000</tspan></tspan></tspan></text>
 <text class="TextShape"><tspan class="TextParagraph" font-family="Liberation Sans, sans-serif" font-size="353px" font-weight="400"><tspan class="TextPosition" x="7523" y="8739"><tspan fill="rgb(0,0,0)" stroke="none">40000000</tspan></tspan></tspan></text>
 <text class="TextShape"><tspan class="TextParagraph" font-family="Liberation Sans, sans-serif" font-size="353px" font-weight="400"><tspan class="TextPosition" x="9076" y="8739"><tspan fill="rgb(0,0,0)" stroke="none">50000000</tspan></tspan></tspan></text>
 <text class="TextShape"><tspan class="TextParagraph" font-family="Liberation Sans, sans-serif" font-size="353px" font-weight="400"><tspan class="TextPosition" x="10629" y="8739"><tspan fill="rgb(0,0,0)" stroke="none">60000000</tspan></tspan></tspan></text>
 <text class="TextShape"><tspan class="TextParagraph" font-family="Liberation Sans, sans-serif" font-size="353px" font-weight="400"><tspan class="TextPosition" x="321" y="8292"><tspan fill="rgb(0,0,0)" stroke="none">0,00E+00</tspan></tspan></tspan></text>
 <text class="TextShape"><tspan class="TextParagraph" font-family="Liberation Sans, sans-serif" font-size="353px" font-weight="400"><tspan class="TextPosition" x="321" y="6733"><tspan fill="rgb(0,0,0)" stroke="none">5,00E+03</tspan></tspan></tspan></text>
 <text class="TextShape"><tspan class="TextParagraph" font-family="Liberation Sans, sans-serif" font-size="353px" font-weight="400"><tspan class="TextPosition" x="321" y="5174"><tspan fill="rgb(0,0,0)" stroke="none">1,00E+04</tspan></tspan></tspan></text>
 <text class="TextShape"><tspan class="TextParagraph" font-family="Liberation Sans, sans-serif" font-size="353px" font-weight="400"><tspan class="TextPosition" x="321" y="3615"><tspan fill="rgb(0,0,0)" stroke="none">1,50E+04</tspan></tspan></tspan></text>
 <text class="TextShape"><tspan class="TextParagraph" font-family="Liberation Sans, sans-serif" font-size="353px" font-weight="400"><tspan class="TextPosition" x="321" y="2056"><tspan fill="rgb(0,0,0)" stroke="none">2,00E+04</tspan></tspan></tspan></text>
 <text class="TextShape"><tspan class="TextParagraph" font-family="Liberation Sans, sans-serif" font-size="353px" font-weight="400"><tspan class="TextPosition" x="321" y="497"><tspan fill="rgb(0,0,0)" stroke="none">2,50E+04</tspan></tspan></tspan></text>
 <path fill="none" stroke="rgb(0,69,134)" stroke-width="80" stroke-linejoin="round" d="M 12548,4250 L 13348,4250"/>
 <path fill="none" stroke="rgb(255,66,14)" stroke-width="80" stroke-linejoin="round" d="M 12548,4747 L 13348,4747"/>
 <text class="TextShape"><tspan class="TextParagraph" font-family="Liberation Sans, sans-serif" font-size="353px" font-weight="400"><tspan class="TextPosition" x="13448" y="4370"><tspan fill="rgb(0,0,0)" stroke="none">avg Time (ms)</tspan></tspan></tspan></text>
 <text class="TextShape"><tspan class="TextParagraph" font-family="Liberation Sans, sans-serif" font-size="353px" font-weight="400"><tspan class="TextPosition" x="13448" y="4867"><tspan fill="rgb(0,0,0)" stroke="none">gerade</tspan></tspan></tspan></text>
</svg>